<?xml version="1.0" encoding="UTF-8" standalone="no"?>
<!-- Created with Inkscape (http://www.inkscape.org/) -->

<svg
   xmlns:dc="http://purl.org/dc/elements/1.1/"
   xmlns:cc="http://creativecommons.org/ns#"
   xmlns:rdf="http://www.w3.org/1999/02/22-rdf-syntax-ns#"
   xmlns:svg="http://www.w3.org/2000/svg"
   xmlns="http://www.w3.org/2000/svg"
   xmlns:sodipodi="http://sodipodi.sourceforge.net/DTD/sodipodi-0.dtd"
   xmlns:inkscape="http://www.inkscape.org/namespaces/inkscape"
   version="1.1"
   id="svg815"
   width="977"
   height="2311"
   viewBox="0 0 977 2311"
   sodipodi:docname="plegias.svg"
   inkscape:version="0.92.3 (2405546, 2018-03-11)">
  <metadata
     id="metadata821">
    <rdf:RDF>
      <cc:Work
         rdf:about="">
        <dc:format>image/svg+xml</dc:format>
        <dc:type
           rdf:resource="http://purl.org/dc/dcmitype/StillImage" />
        <dc:title></dc:title>
      </cc:Work>
    </rdf:RDF>
  </metadata>
  <defs
     id="defs819" />
  <sodipodi:namedview
     pagecolor="#ffffff"
     bordercolor="#666666"
     borderopacity="1"
     objecttolerance="10"
     gridtolerance="10"
     guidetolerance="10"
     inkscape:pageopacity="0"
     inkscape:pageshadow="2"
     inkscape:window-width="1366"
     inkscape:window-height="697"
     id="namedview817"
     showgrid="false"
     inkscape:zoom="0.16216642"
     inkscape:cx="-798.42668"
     inkscape:cy="1260.035"
     inkscape:window-x="-8"
     inkscape:window-y="-8"
     inkscape:window-maximized="1"
     inkscape:current-layer="svg815" />
  <path
     style="fill:#00ff00;stroke:none;stroke-width:1px;stroke-linecap:butt;stroke-linejoin:miter;stroke-opacity:1;fill-opacity:0.33333334"
     d="m 274.70377,793.58868 -16.35141,106.82924 -5.45047,52.32453 c -12.71215,32.84368 -18.55906,62.15735 -44.69388,105.73915 l -44.69386,83.9372 v 68.676 c -6.65082,30.143 -6.50335,50.0885 -7.63066,71.9462 l 7.63066,55.5948 c -2.59284,8.921 -7.93634,7.9174 -13.08113,7.6307 l -12.56348,-53.9209 -5.13144,2.3332 3.45757,68.9518 c -4.39403,5.7868 -7.24836,14.6531 -19.48945,4.7458 l -4.22813,-72.0558 c -3.11209,-4.7444 -6.84978,-4.1484 -10.92347,-0.6841 l -10.746163,73.1253 c -6.452776,2.4656 -12.706566,8.513 -20.139356,-6.6615 l 12.178069,-71.4286 c -1.870805,-3.8648 -3.953176,-5.5837 -6.540566,-2.1802 l -34.233111,61.8161 c -8.684686,-1.7826 -9.826687,-5.7203 -11.550851,-9.4916 -2.806922,-23.3954 13.38423,-38.2967 21.669636,-57.0703 l 14.755008,-65.6588 c -14.344447,-10.7373 -38.413535,9.3201 -58.2265313,15.8999 -13.2194002,-3.664 -6.827,-19.8104 0,-28.3425 l 89.3877363,-69.766 c 13.468949,-7.322 12.794579,-123.0762 18.531599,-189.67641 7.01135,-41.65898 27.74607,-90.17964 45.78397,-137.35189 9.68017,-30.52264 15.3904,-61.04529 16.35141,-91.56793 l 3.27028,-168.96462 c -3.65499,-37.21211 6.45406,-54.42538 16.35142,-71.94623 22.8208,-21.97984 44.46073,-40.37129 71.94623,-44.69386 z"
     id="path825"
     inkscape:connector-curvature="0"
     sodipodi:nodetypes="ccccccccccccccccccccccccccccccccc" />
  <path
     style="fill:#00ff00;fill-opacity:0.33333334;stroke:none;stroke-width:1px;stroke-linecap:butt;stroke-linejoin:miter;stroke-opacity:1"
     d="m 701.80327,787.11848 16.35141,106.82924 5.45047,52.32453 c 12.71215,32.84368 18.55906,62.15735 44.69388,105.73915 l 44.69386,83.9372 v 68.676 c 6.65082,30.143 6.50335,50.0885 7.63066,71.9462 l -7.63066,55.5948 c 2.59284,8.921 7.93634,7.9174 13.08113,7.6307 l 12.56348,-53.9209 5.13144,2.3332 -3.45757,68.9518 c 4.39403,5.7868 7.24836,14.6531 19.48945,4.7458 l 4.22813,-72.0558 c 3.11209,-4.7444 6.84978,-4.1484 10.92347,-0.6841 l 10.74616,73.1253 c 6.45278,2.4656 12.70657,8.513 20.13936,-6.6615 l -12.17807,-71.4286 c 1.87081,-3.8648 3.95318,-5.5837 6.54057,-2.1802 l 34.23311,61.8161 c 8.68469,-1.7826 9.82669,-5.7203 11.55085,-9.4916 2.80692,-23.3954 -13.38423,-38.2967 -21.66964,-57.0703 l -14.75501,-65.6588 c 14.34445,-10.7373 38.41354,9.3201 58.22654,15.8999 13.2194,-3.664 6.827,-19.8104 0,-28.3425 l -89.38774,-69.766 c -13.46895,-7.322 -12.79458,-123.0762 -18.5316,-189.67641 -7.01135,-41.65898 -27.74607,-90.17964 -45.78397,-137.35189 -9.68017,-30.52264 -15.3904,-61.04529 -16.35141,-91.56793 l -3.27028,-168.96462 c 3.65499,-37.21211 -6.45406,-54.42538 -16.35142,-71.94623 -22.8208,-21.97984 -44.46073,-40.37129 -71.94623,-44.69386 z"
     id="path825-1"
     inkscape:connector-curvature="0"
     sodipodi:nodetypes="ccccccccccccccccccccccccccccccccc" />
  <path
     style="fill:#00ff00;stroke:none;stroke-width:1px;stroke-linecap:butt;stroke-linejoin:miter;stroke-opacity:1;fill-opacity:0.33333334"
     d="m 231.24393,1247.2779 c 68.3387,55.7425 146.47047,96.3503 237.41043,117.1636 -0.082,26.8855 2.22523,48.9926 -1.54163,83.2478 -15.92574,45.8656 -19.77464,134.7686 -40.85309,270.5554 -5.26267,40.3491 -1.01879,39.691 -0.77081,56.2694 l 9.24976,110.9971 c -1.71693,55.8491 -5.99526,116.8211 -13.87464,184.9951 l 38.54066,206.5779 c 0.6373,12.8368 -4.63517,13.8541 -7.70813,19.2704 l -3.08326,14.6454 -106.3722,-9.2498 c -8.06143,-5.3154 -16.699,-8.6142 -20.81196,-27.7492 -4.62581,-15.9289 15.31531,-64.6137 27.74927,-103.289 0.11097,-34.9572 -7.43062,-57.1601 -13.10382,-82.477 l -52.41529,-160.3291 c -9.54348,-36.5219 -8.07757,-62.0345 -7.70813,-88.6435 10.50737,-55.2281 16.98489,-108.4413 19.27033,-159.5584 -7.6947,-82.6256 -41.26598,-139.1547 -54.72773,-238.952 -16.12588,-75.3274 -12.70445,-158.295 -9.24976,-193.4741 z"
     id="path851"
     inkscape:connector-curvature="0"
     sodipodi:nodetypes="ccccccccccccccccccc" />
  <path
     style="fill:#00ff00;fill-opacity:0.33333333;stroke:none;stroke-width:1px;stroke-linecap:butt;stroke-linejoin:miter;stroke-opacity:1"
     d="m 745.46721,1247.7135 c -68.3387,55.7425 -146.47047,96.3503 -237.41039,117.1636 0.082,26.8855 -2.2253,48.9926 1.5416,83.2478 15.92573,45.8656 19.77463,134.7686 40.85308,270.5554 5.26267,40.3491 1.01879,39.691 0.77081,56.2694 l -9.24976,110.9971 c 1.71693,55.8491 5.99526,116.8211 13.87464,184.9951 l -38.54066,206.5779 c -0.6373,12.8368 4.63517,13.8541 7.70813,19.2704 l 3.08326,14.6454 106.3722,-9.2498 c 8.06143,-5.3154 16.699,-8.6142 20.81196,-27.7492 4.62581,-15.9289 -15.31531,-64.6137 -27.74927,-103.289 -0.11097,-34.9572 7.43062,-57.1601 13.10382,-82.477 l 52.41529,-160.3291 c 9.54348,-36.5219 8.07757,-62.0345 7.70813,-88.6435 -10.50737,-55.2281 -16.98489,-108.4413 -19.27033,-159.5584 7.6947,-82.6256 41.26598,-139.1547 54.72773,-238.952 16.12588,-75.3274 12.70445,-158.295 9.24976,-193.4741 z"
     id="path851-1"
     inkscape:connector-curvature="0"
     sodipodi:nodetypes="ccccccccccccccccccc" />
</svg>
